<?xml version="1.0" encoding="UTF-8" standalone="no"?>
<svg
   width="284mm"
   height="127mm"
   viewBox="0 0 284 127"
   version="1.1"
   id="svg1631"
   inkscape:version="1.2.2 (732a01da63, 2022-12-09)"
   sodipodi:docname="TMWH_logo.svg"
   xmlns:inkscape="http://www.inkscape.org/namespaces/inkscape"
   xmlns:sodipodi="http://sodipodi.sourceforge.net/DTD/sodipodi-0.dtd"
   xmlns="http://www.w3.org/2000/svg"
   xmlns:svg="http://www.w3.org/2000/svg"
   xmlns:rdf="http://www.w3.org/1999/02/22-rdf-syntax-ns#"
   xmlns:cc="http://creativecommons.org/ns#"
   xmlns:dc="http://purl.org/dc/elements/1.1/">
  <defs
     id="defs1625" />
  <sodipodi:namedview
     id="base"
     pagecolor="#ffffff"
     bordercolor="#666666"
     borderopacity="1.0"
     inkscape:pageopacity="0.0"
     inkscape:pageshadow="2"
     inkscape:zoom="0.7"
     inkscape:cx="684.28571"
     inkscape:cy="555.71429"
     inkscape:document-units="mm"
     inkscape:current-layer="layer2"
     inkscape:document-rotation="0"
     showgrid="false"
     inkscape:pagecheckerboard="true"
     inkscape:showpageshadow="false"
     showborder="true"
     inkscape:window-width="1680"
     inkscape:window-height="1020"
     inkscape:window-x="192"
     inkscape:window-y="0"
     inkscape:window-maximized="0"
     inkscape:deskcolor="#d1d1d1" />
  <metadata
     id="metadata1628">
    <rdf:RDF>
      <cc:Work
         rdf:about="">
        <dc:format>image/svg+xml</dc:format>
        <dc:type
           rdf:resource="http://purl.org/dc/dcmitype/StillImage" />
      </cc:Work>
    </rdf:RDF>
  </metadata>
  <g
     inkscape:label="Layer 1"
     inkscape:groupmode="layer"
     id="layer1">
    <g
       id="g1602"
       transform="matrix(1.0725262,0,0,-1.0725263,168.94622,692.0696)">
      <g
         id="g5457"
         transform="matrix(3.3596317,0,0,3.3596317,-98.070432,588.76684)">
        <path
           d="m 0,0 h -7.038 c -0.396,0 -0.717,0.321 -0.717,0.717 v 9.846 c 0,0.397 0.321,0.718 0.717,0.718 H 0 c 0.396,0 0.717,-0.321 0.717,-0.718 V 0.717 C 0.717,0.321 0.396,0 0,0"
           style="fill:#d1000f;fill-opacity:1;fill-rule:nonzero;stroke:none"
           id="path5459"
           inkscape:connector-curvature="0" />
      </g>
      <g
         id="g5461"
         transform="matrix(3.3596317,0,0,3.3596317,-69.767551,576.864)">
        <path
           d="m 0,0 v 8.225 c 0,0.386 -0.351,0.68 -0.732,0.614 -9.26,-1.616 -16.536,-8.992 -18.003,-18.303 -0.06,-0.377 0.232,-0.722 0.615,-0.722 h 8.485 c 0.284,0 0.535,0.191 0.602,0.467 1.056,4.351 4.355,7.823 8.603,9.128 C -0.173,-0.513 0,-0.27 0,0"
           style="fill:#187a3b;fill-opacity:1;fill-rule:nonzero;stroke:none"
           id="path5463"
           inkscape:connector-curvature="0" />
      </g>
      <g
         id="g5465"
         transform="matrix(3.3596317,0,0,3.3596317,-117.82775,569.73822)">
        <path
           d="m 0,0 h -9.636 c -0.394,0 -0.712,0.318 -0.712,0.71 v 7.053 c 0,0.39 0.318,0.71 0.712,0.71 H 0 c 0.394,0 0.711,-0.32 0.711,-0.71 V 0.71 C 0.711,0.318 0.394,0 0,0"
           style="fill:#d1000f;fill-opacity:1;fill-rule:nonzero;stroke:none"
           id="path5467"
           inkscape:connector-curvature="0" />
      </g>
      <g
         id="g5469"
         transform="matrix(3.3596317,0,0,3.3596317,-120.33337,585.75661)">
        <path
           d="m 0,0 h -4.618 c -0.413,0 -0.748,0.336 -0.748,0.747 v 6.447 c 0,0.413 0.335,0.747 0.748,0.747 H 0 c 0.412,0 0.746,-0.334 0.746,-0.747 V 0.747 C 0.746,0.336 0.412,0 0,0"
           style="fill:#187a3b;fill-opacity:1;fill-rule:nonzero;stroke:none"
           id="path5471"
           inkscape:connector-curvature="0" />
      </g>
      <g
         id="g5473"
         transform="matrix(3.3596317,0,0,3.3596317,-95.660232,598.20337)">
        <path
           d="M 0,0 H -4.237 V 4.236 H -8.473 V 0 h -4.237 v -4.237 h 4.237 v -4.236 h 4.236 v 4.236 H 0 Z"
           style="fill:#ffffff;fill-opacity:1;fill-rule:nonzero;stroke:none"
           id="path5475"
           inkscape:connector-curvature="0" />
      </g>
    </g>
  </g>
  <g
     inkscape:groupmode="layer"
     id="layer2"
     inkscape:label="TMWH">
    <text
       xml:space="preserve"
       style="font-style:normal;font-variant:normal;font-weight:normal;font-stretch:normal;font-size:9.87778px;font-family:sans-serif;-inkscape-font-specification:'sans-serif, Normal';font-variant-ligatures:normal;font-variant-caps:normal;font-variant-numeric:normal;font-variant-east-asian:normal;fill:#000000;stroke-width:0.264583"
       x="100.91964"
       y="61.988091"
       id="text231"><tspan
         sodipodi:role="line"
         id="tspan233"
         x="100.91964"
         y="61.988091"
         style="font-style:normal;font-variant:normal;font-weight:normal;font-stretch:normal;font-size:9.87778px;font-family:sans-serif;-inkscape-font-specification:'sans-serif, Normal';font-variant-ligatures:normal;font-variant-caps:normal;font-variant-numeric:normal;font-variant-east-asian:normal"><tspan
   style="font-style:normal;font-variant:normal;font-weight:bold;font-stretch:normal;font-size:42.3333px;font-family:sans-serif;-inkscape-font-specification:'sans-serif, Normal';font-variant-ligatures:normal;font-variant-caps:normal;font-variant-numeric:normal;font-variant-east-asian:normal"
   id="tspan295">TAIPEI</tspan> </tspan><tspan
         sodipodi:role="line"
         x="100.91964"
         y="85.294563"
         id="tspan289">MUNICIPAL WANFANG HOSPITAL</tspan><tspan
         sodipodi:role="line"
         id="tspan235"
         x="100.91964"
         y="97.641785"
         style="font-size:8.46667px">(Managed by Taipei Medical University)</tspan></text>
  </g>
</svg>
